# xmcd
#
# Track frame offsets:
#	150
#	23132
#	68592
#	106054
#	130440
#	157597
#
# Disc length: 2541 seconds
#
# Revision: 1
# Processed by: cddbd v1.5.1PL2 Copyright (c) Steve Scherf et al.
# Submitted via: EasyCDDAExtractor 9.0.0.1
#
DISCID=3d09eb06
DTITLE=Scorpions - Scandinavium Gothenburg 14-01-89 Disc 2
DYEAR=1989
DGENRE=Hard Rock
TTITLE0=Can't Live Without You
TTITLE1=Drum Solo - Guitar Solo - Coming Home
TTITLE2=The Zoo
TTITLE3=Rock You Like A Hurricane
TTITLE4=No One Like You
TTITLE5=Dynamite
EXTD=
EXTT0=
EXTT1=
EXTT2=
EXTT3=
EXTT4=
EXTT5=
PLAYORDER=
